<?xml version="1.0" encoding="UTF-8"?>
<svg id="Layer_3_copy_3" data-name="Layer 3 copy 3" xmlns="http://www.w3.org/2000/svg" viewBox="0 0 130 130">
  <defs>
    <style>
      .cls-1 {
        fill: #231f20;
      }

      .cls-1, .cls-2 {
        stroke-width: 0px;
      }

      .cls-2 {
        fill: #fde08d;
      }
    </style>
  </defs>
  <path class="cls-2" d="m72.23,112.83c17.16,0,33.61-15.09,32.81-32.81-.8-17.78-14.42-32.81-32.81-32.81-17.16,0-33.61,15.09-32.81,32.81.8,17.78,14.42,32.81,32.81,32.81h0Z"/>
  <path class="cls-2" d="m92.03,62.34c9.14,0,17.89-8.11,17.46-17.63-.42-9.55-7.67-17.63-17.46-17.63-9.14,0-17.89,8.11-17.46,17.63.42,9.55,7.67,17.63,17.46,17.63h0Z"/>
  <path class="cls-1" d="m104.98,28.09c-1.68-3.1-4.22-5.68-7.17-7.46-5.79-3.45-13.77-3.66-19.59-.35-2.9,1.71-5.2,4.36-7.04,7.27-3.78,5.79-6.1,12.93-4.46,19.83,2.28,9.58,8.68,16.34.05,25.21-11.45,11.79-31.03,14.95-45.3,6.43-9.43-5.4-16.02-15.28-18.15-25.78,0,0,.2-.04.2-.04,6.2,21.33,27.58,33.97,48.97,26.36,6.36-2.36,12.86-6.04,16.49-11.95,3.76-6.64-1.56-13.48-2.88-20.09-1.83-7.08.01-14.64,3.68-20.84,1.83-3.12,4.28-6.06,7.56-7.93,8.02-4.49,19.29-2.58,25.05,4.66,1.14,1.4,2.12,2.92,2.78,4.6l-.18.08h0Z"/>
  <path class="cls-1" d="m92.03,37.52c11.32-2.57,22.94-3.81,34.55-3.65-11.32,2.58-22.94,3.8-34.55,3.65h0Z"/>
  <path class="cls-1" d="m109.12,35.74c4.98,13.73,6.25,29.68.28,43.36-6.17,13.66-19.92,22.54-34.27,25.62-30.67,6.4-56.8-18.2-71.8-42.32,0,0,.16-.11.16-.11,4.45,5.81,9.09,11.45,14.16,16.66,10.02,10.31,21.89,19.45,35.87,23.39,20.76,6.13,46.32-2.76,54.35-23.89,4.1-10.02,4.6-21.25,3.18-31.93-.5-3.6-1.16-7.19-2.13-10.71,0,0,.19-.07.19-.07h0Z"/>
</svg>